<?xml version="1.0" encoding="utf-8"?>
<!-- Generator: Adobe Illustrator 26.3.1, SVG Export Plug-In . SVG Version: 6.00 Build 0)  -->
<svg version="1.1" id="Capa_1" xmlns="http://www.w3.org/2000/svg" xmlns:xlink="http://www.w3.org/1999/xlink" x="0px" y="0px"
	 viewBox="0 0 64 64" style="enable-background:new 0 0 64 64;" xml:space="preserve">
<path d="M43.5,64C43.5,64,43.5,64,43.5,64H8c-0.6,0-1-0.5-1-1V1c0-0.6,0.5-1,1-1h48c0.6,0,1,0.5,1,1v49.1c0,0,0,0.1,0,0.1
	c0,0,0,0,0,0c0,0,0,0,0,0c0,0,0,0,0,0c0,0,0,0,0,0c0,0,0,0,0,0l0,0c0,0,0,0.1,0,0.1c0,0,0,0,0,0c0,0,0,0,0,0c0,0,0,0,0,0v0
	c0,0.2-0.1,0.3-0.3,0.5l0,0c0,0,0,0,0,0l0,0c0,0,0,0,0,0l0,0c0,0,0,0,0,0c0,0,0,0,0,0c0,0,0,0,0,0c0,0,0,0,0,0c0,0,0,0,0,0
	L44.2,63.7c0,0,0,0,0,0l0,0c0,0,0,0,0,0l0,0c0,0,0,0,0,0c0,0,0,0,0,0c0,0,0,0,0,0c0,0,0,0,0,0c0,0,0,0,0,0c0,0,0,0,0,0c0,0,0,0,0,0
	c0,0,0,0,0,0c0,0,0,0,0,0c-0.1,0.1-0.3,0.2-0.5,0.3c0,0,0,0,0,0c0,0,0,0,0,0c0,0,0,0,0,0c0,0,0,0,0,0c0,0,0,0,0,0c0,0,0,0,0,0
	c0,0,0,0,0,0l0,0c0,0,0,0,0,0c0,0,0,0,0,0c0,0,0,0,0,0c0,0,0,0,0,0c0,0,0,0,0,0c0,0,0,0,0,0c0,0,0,0,0,0C43.6,64,43.5,64,43.5,64z
	 M9.1,61.9h33.4V50.1c0-0.6,0.5-1,1-1h11.5v-47H9.1V61.9z M44.5,51.1v9.3l9-9.3H44.5z M46.1,45.5h-32c-0.6,0-1-0.5-1-1
	c0-0.6,0.5-1,1-1h32c0.6,0,1,0.5,1,1C47.2,45,46.7,45.5,46.1,45.5z M49.7,40.8H14.1c-0.6,0-1-0.5-1-1c0-0.6,0.5-1,1-1h35.6
	c0.6,0,1,0.5,1,1C50.8,40.3,50.3,40.8,49.7,40.8z M21.1,34.2c0,0-0.1,0-0.1,0l-7.9-1.1c-0.3,0-0.5-0.2-0.7-0.4
	c-0.2-0.2-0.2-0.5-0.2-0.8l2.5-11.7c-1.8-1.7-2.8-4.2-2.5-6.9c0.4-4.8,4.6-8.4,9.4-8c4.8,0.4,8.4,4.6,8,9.4
	c-0.2,2.2-1.1,4.1-2.6,5.5l2.4,9.3c0.1,0.3,0,0.6-0.1,0.8c-0.2,0.2-0.4,0.4-0.7,0.5l-6.2,1l0,1.4c0,0.3-0.1,0.6-0.4,0.8
	C21.6,34.2,21.4,34.2,21.1,34.2z M14.4,31.2l5.7,0.8l0.2-9.3c-0.1,0-0.2,0-0.3,0c-1.3-0.1-2.5-0.5-3.6-1.1L14.4,31.2z M22.3,29.3
	l0.1,0.4l4.6-0.7L25,21.6c-0.8,0.5-1.7,0.8-2.6,1L22.3,29.3z M20.8,7.4c-1.6,0-3.1,0.6-4.3,1.6c-1.3,1.1-2.2,2.7-2.3,4.5
	c-0.3,3.6,2.4,6.8,6.1,7.1c3.6,0.3,6.8-2.4,7.1-6.1c0.3-3.6-2.4-6.8-6.1-7.1C21.1,7.4,20.9,7.4,20.8,7.4z M49.7,21.9H35
	c-0.6,0-1-0.5-1-1c0-0.6,0.5-1,1-1h14.7c0.6,0,1,0.5,1,1C50.8,21.4,50.3,21.9,49.7,21.9z M47.6,16.4H35c-0.6,0-1-0.5-1-1
	c0-0.6,0.5-1,1-1h12.6c0.6,0,1,0.5,1,1C48.7,15.9,48.2,16.4,47.6,16.4z M49.7,10.5H35c-0.6,0-1-0.5-1-1s0.5-1,1-1h14.7
	c0.6,0,1,0.5,1,1S50.3,10.5,49.7,10.5z"/>
</svg>
